PathFileType	4	(X/Y/Z)	RBDS04\RBDS04runT25.trc
DataRate	CameraRate	NumFrames	NumMarkers	Units	OrigDataRate	OrigDataStartFrame	OrigNumFrames
150.000000	150.000000	6	33	mm	150.000000	0	4500
Frame#	Time	L.ASIS			L.Heel.Bottom			L.Heel.Lateral			L.Heel.Top			L.Iliac.Crest			L.MT1			L.MT5			L.PSIS			L.Shank.Bottom.Lateral			L.Shank.Bottom.Medial			L.Shank.Top.Lateral			L.Shank.Top.Medial			L.Thigh.Bottom.Lateral			L.Thigh.Bottom.Medial			L.Thigh.Top.Lateral			L.Thigh.Top.Medial			R.ASIS			R.ASY			R.Heel.Bottom			R.Heel.Lateral			R.Heel.Top			R.Iliac.Crest			R.MT1			R.MT5			R.PSIS			R.Shank.Bottom.Lateral			R.Shank.Bottom.Medial			R.Shank.Top.Lateral			R.Shank.Top.Medial			R.Thigh.Bottom.Lateral			R.Thigh.Bottom.Medial			R.Thigh.Top.Lateral			R.Thigh.Top.Medial			
		X1	Y1	Z1	X2	Y2	Z2	X3	Y3	Z3	X4	Y4	Z4	X5	Y5	Z5	X6	Y6	Z6	X7	Y7	Z7	X8	Y8	Z8	X9	Y9	Z9	X10	Y10	Z10	X11	Y11	Z11	X12	Y12	Z12	X13	Y13	Z13	X14	Y14	Z14	X15	Y15	Z15	X16	Y16	Z16	X17	Y17	Z17	X18	Y18	Z18	X19	Y19	Z19	X20	Y20	Z20	X21	Y21	Z21	X22	Y22	Z22	X23	Y23	Z23	X24	Y24	Z24	X25	Y25	Z25	X26	Y26	Z26	X27	Y27	Z27	X28	Y28	Z28	X29	Y29	Z29	X30	Y30	Z30	X31	Y31	Z31	X32	Y32	Z32	X33	Y33	Z33	

1	0	2067.594502891785	945.1492700468465	914.6571417007935	1517.396431986961	364.9135357018008	941.139565444177	1531.836353243988	332.0773074937946	898.7136773947663	1563.778622310128	359.2735770123281	935.3195291593169	2020.136308419104	1021.757766301608	871.5641899764421	1560.221067051071	156.7398327071184	984.6638119263954	1528.633875998041	179.1246834361017	888.985892081524	1906.75645966052	986.0083275658199	965.2313675023632	1655.161261869157	334.2006110377574	885.0277733354679	1635.109011023062	371.695985893419	912.6760818861886	1724.858540040593	375.1934862346364	874.7172489746503	1707.115122523976	415.6132522585382	904.6819445983784	1972.82959756574	577.9228044714384	856.0323585835539	1908.853375253016	580.248312178447	891.634202158899	1964.701546164923	686.9735331906564	839.8463850833773	1904.588500083647	689.3754762763942	873.7770590530986	2063.633250302585	953.0105072532169	1107.253788320121	2190.691349672172	88.74121571123118	1038.49782346358	2021.493984370632	27.98834434665673	1022.025831063885	2051.215203790993	42.69028559071254	1064.741828188522	2029.348407423426	73.1603003550961	1024.957937418614	2003.917330084075	1015.480230775402	1147.758562453167	2235.418966057814	54.41714908503643	1000.214306258312	2203.369711328076	41.07336482062468	1093.848175908963	1903.073988433986	987.4193990477639	1051.792880559873	2082.187748262777	157.1640753275001	1093.287343958271	2045.546827010083	165.3304795196035	1053.70539251821	2071.877950133507	234.6564897013025	1115.275894589552	2038.020936668559	242.4277974096158	1073.607273306698	2072.17275728929	583.1918337730942	1153.508833505384	2016.867118185687	566.3638212966194	1108.358962747451	2025.729100959168	682.2840504371925	1171.855246210824	1970.453105003628	664.3638522952793	1131.53593807091	
2	0.006666666666666667	2067.19669810975	939.0136815598696	915.2583823379161	1524.461289469976	369.8491439183684	938.9431148421668	1538.963281272107	336.964016209942	896.3751672861772	1570.848725033386	363.7210568073541	933.8260755212384	2019.416834934268	1014.072308443042	870.9790842288796	1564.256147782411	161.0351276181952	982.5336334898891	1534.175774206588	183.9829320278334	886.4734228106712	1904.860054613511	978.8999032937697	965.3220127286511	1662.651693773193	335.7064891448362	883.9854224585729	1643.476491084675	374.0065663123689	911.3828147382105	1733.245111324619	374.7071654604709	873.8280660154727	1716.728549747352	415.5955511157997	903.7126826477622	1979.18877078078	571.4767986147613	855.717220238202	1915.284712742846	572.5617670165067	891.5072889693781	1969.017884625346	680.3805124492636	839.8372698446044	1908.980568219579	681.6231450207765	873.9297151858555	2061.570011758907	947.6544314011687	1107.504367380543	2174.64197675571	87.38821398196463	1036.008349970488	2005.587707086844	28.2074930849538	1020.606456734759	2035.404302336773	43.26538686872517	1063.122858924687	2013.86866433505	73.38413897858761	1022.906357687844	2002.612244136926	1008.318090786822	1148.701522457808	2219.998162740516	53.48862586079326	998.6441431644067	2187.485698599241	41.15821021731886	1092.719092609933	1900.839816021821	981.550541752598	1051.407419583408	2071.91153716368	156.6497321084768	1089.747599092996	2034.655556453668	166.8333806159677	1051.247487124952	2065.581821590932	234.1800584325977	1112.286337330467	2031.329772953998	243.80304413982	1071.472176641108	2073.502007554145	579.6243423201885	1153.188660312664	2018.662798054433	562.4502956142554	1107.57937222326	2025.748042021954	677.9535455457495	1171.863547170277	1970.756736700605	659.4832995967594	1131.45621715055	
3	0.01333333333333333	2066.719413528549	933.0447703808305	915.8492709047555	1531.704977296194	374.5309142723725	936.7684781903115	1546.316140629104	341.6140562425771	894.0771947993884	1578.096122768566	367.9607394356405	932.3354335695569	2018.589100655443	1006.545082000613	870.4009581674653	1568.6957767603	165.1318000436245	980.4203537311879	1540.109649404342	188.6125587813173	883.9897800861088	1902.957383489075	972.0111498915497	965.3831537645948	1670.354573417319	337.1391464115478	882.9486287807462	1652.021822629394	376.2082981762003	910.1015425074354	1741.808081521531	374.2129740027423	872.9521943493436	1726.464677042442	415.5572066587298	902.7489513967676	1985.618546240084	565.2757451025539	855.4065448858894	1921.784598836723	565.0837901524155	891.3571237296301	1973.360432621502	674.0089219349018	839.8337659652332	1913.395470142154	674.0596048379861	874.065440201117	2059.519562111857	942.4421991895383	1107.763567663506	2158.572636843774	86.09432862915531	1033.682255167273	1989.627890877063	28.46004886489691	1019.295809437954	2019.542481205947	43.83861532145714	1061.622934526737	1998.328338319872	73.63869392482367	1021.00457981379	2001.208235117155	1001.324557223664	1149.618125470396	2204.498919548148	52.59589989584699	997.1966421348826	2171.543303792334	41.22873814630869	1091.674601597848	1898.624020177646	975.8422944930767	1051.004952112246	2061.483949451453	156.1579587180457	1086.461122724531	2023.666566483939	168.3142454039921	1049.007484390788	2059.064241699905	233.692504864892	1109.523364747953	2024.447539242952	245.1314111079636	1069.542169993945	2074.560753641395	576.066935773515	1152.896218003763	2020.187941216228	558.6024297816946	1106.806061888124	2025.586821181131	673.68178910527	1171.881025924907	1970.896032224375	654.7327516572021	1131.334035674975	
4	0.02	2066.08993247204	927.382448161301	916.4155749999703	1539.274884418138	378.7433438133493	934.6290710502958	1554.089115703173	345.8243363898767	891.8537860427147	1585.672240114726	371.8178373776711	930.8489482065803	2017.546944708861	999.3184733789461	869.8357778659406	1573.892355279475	168.8475091774332	978.3379317532432	1546.780257417664	192.8059208640104	881.5601799111525	1901.041575320071	965.5313070258225	965.3910116020234	1678.455779692678	338.4396220035161	881.9219265815096	1660.901301969592	378.2125778130812	908.8423427601391	1750.705340337457	373.7104233980068	872.1002795061594	1736.434043081683	415.4878529941314	901.7956802754633	1992.184484477118	559.5349568177102	855.103235112852	1928.41927712972	557.9943739301741	891.1650185307079	1977.749300536973	668.0498521103766	839.8408436230801	1917.852543861366	666.8441238299228	874.1717466551901	2057.492315314364	937.4965624914194	1108.036461971485	2142.461071129406	84.90558523223346	1031.658773688109	1973.568398900542	28.75238833821161	1018.18545791103	2003.58451158051	44.39141436108301	1060.342590835168	1982.669911874398	73.92836558670136	1019.377682458856	1999.617240320218	994.6552830602865	1150.481496174284	2188.851495805871	51.77151369097696	995.9780852331681	2155.492921671473	41.27121372105364	1090.789915732346	1896.440329987629	970.4308411443159	1050.572376482083	2050.764559457233	155.6904077190841	1083.645577592634	2012.489180230624	169.7360537777044	1047.171802146475	2052.122408863003	233.1653070853311	1107.183348079134	2017.200551282435	246.3529237430799	1067.992870952361	2075.103411125848	572.515995551104	1152.665569844393	2021.189495357064	554.8610302535293	1106.062474710215	2025.080510453351	669.5130015184101	1171.922705605825	1970.714741606523	650.215361399817	1131.145230940784	
5	0.02666666666666667	2065.25543117451	922.1460657645376	916.9389696162023	1547.270707197252	382.3024246891052	932.5384695716024	1562.420109259488	349.4233944258567	889.7344544435931	1593.681494520073	375.1435239200154	929.3712695410019	2016.210796455169	992.5307393565615	869.2904488752046	1580.125834837139	172.0254371803754	976.3016879285991	1554.457136558366	196.3852301823561	879.2098581095609	1899.111579128997	959.6176106990475	965.3329796487882	1687.08991258998	339.5577755923457	880.9124615554704	1670.223260136021	379.9458162357209	907.6170285206274	1760.047872770736	373.2033278907842	871.2821279173543	1746.70810220891	415.3812316213052	900.8601691998194	1998.930702539028	554.434222634411	854.806247194377	1935.237954592725	551.4474212631432	890.91916917457	1982.193824538142	662.6617733315478	839.8584672991074	1922.363361651152	660.1115036053682	874.2376663995536	2055.501030672609	932.9201559693271	1108.321978284293	2126.297179094473	83.85681107400212	1030.033739567006	1957.384051067152	29.08273816938752	1017.336917870217	1987.50493063204	44.9066104545818	1059.35011333425	1966.858051336788	74.25011194285139	1018.109986726337	1997.783522838234	988.4502952526793	1151.267577998722	2173.011029469244	51.04023284091775	995.0629103486455	2139.306401529633	41.27572057245429	1090.118891690101	1894.304152110672	965.431499834222	1050.107450527209	2039.640992589739	155.2435214885172	1081.452358201471	2001.048806916637	171.0646044184489	1045.867957014084	2044.591029189802	232.5718742920881	1105.404763697637	2009.445828946977	247.4145523077657	1066.946045495665	2074.924700898581	568.9727746494485	1152.531101740299	2021.447591690726	551.2583405033405	1105.386386099013	2024.092944795395	665.4905851051777	1172.006325655337	1970.076576438079	646.0179085814655	1130.887158759475	
6	0.03333333333333333	2064.189309765021	917.4300636710078	917.3987161193105	1555.737417297457	385.0593078111374	930.5105163852138	1571.381430695562	352.2755756059553	887.7429893292264	1602.173955124243	377.8180228778274	927.911683371726	2014.536407972934	986.3131771692806	868.7735899245973	1587.592323729973	174.539151920184	974.3285759687516	1563.321950660206	199.2086241504436	876.9635778728527	1897.17317801188	954.3870854886043	965.2109252117616	1696.331696225926	340.4523513700206	879.9305468648005	1680.039919581805	381.3507082603531	906.439212450866	1769.891804605214	372.6992018443509	870.5065556742056	1757.312775445945	415.2344704318834	899.9524068158876	2005.876057809882	550.1112937186082	854.5099865330762	1942.26950292952	545.5663156968468	890.6151207951655	1986.691347950531	657.964661798417	839.8806377888104	1926.931104518704	653.9679524455742	874.2535551051137	2053.559658791152	928.7904179634465	1108.612860168934	2110.077949239164	82.96935975649869	1028.850060409831	1941.067349952204	29.44122638648352	1016.775206313889	1971.294588898932	45.37004989515354	1058.674578869968	1950.877100939296	74.59361606310112	1017.236381707273	1995.693867395669	982.8292495772744	1151.957180501416	2156.95608609738	50.41742806502316	994.4859058016445	2122.974114596946	41.23730974067674	1089.688172693814	1892.232223520722	960.9343213141531	1049.621432069968	2028.029836490978	154.8109140461465	1079.951188823832	1989.285154847783	172.2728007612225	1045.149994352202	2036.346139644314	231.8924211918726	1104.253366938258	2001.073947047491	248.2763838117601	1066.45509797323	2073.869085364849	565.4473424662702	1152.524623914681	2020.78385783274	547.8195383127658	1104.829692194797	2022.523402038146	661.6586797146741	1172.151070416892	1968.869781765482	642.2088220837336	1130.582137720133	
